<svg width="111" height="40" viewBox="0 0 111 40" fill="none" xmlns="http://www.w3.org/2000/svg">
<path d="M35.1528 0.845796C37.9528 0.845796 40.2022 1.30648 41.901 2.22784C43.5998 3.1492 44.6267 4.44208 44.9816 6.10647C45.3515 7.74114 44.9932 9.62845 43.9066 11.7684C43.2275 13.1058 42.2679 14.3393 41.0277 15.4687C39.8209 16.5981 38.5031 17.5195 37.0742 18.2328C35.6787 18.9461 34.3523 19.3919 33.0951 19.5702C34.3046 19.7486 35.3282 20.1944 36.166 20.9077C37.0371 21.621 37.5617 22.5572 37.7398 23.7164C37.9513 24.8755 37.6797 26.1981 36.9251 27.6841C35.7631 29.9727 34.0777 31.9789 31.8691 33.7027C29.6755 35.3968 27.1948 36.7046 24.427 37.6259C21.6774 38.577 18.8859 39.0526 16.0526 39.0526C11.6193 39.0526 8.58993 38.0272 6.96458 35.9764C5.33923 33.9256 5.25783 31.1318 6.72039 27.595H15.6704C15.0825 29.081 15.1015 30.2253 15.7273 31.0278C16.3865 31.8303 17.6494 32.2315 19.5161 32.2315C21.3828 32.2315 23.0941 31.8154 24.65 30.9832C26.2392 30.151 27.3734 29.0662 28.0525 27.7287C28.8071 26.2427 28.7381 25.0984 27.8455 24.2959C26.9864 23.4934 25.4734 23.0922 23.3068 23.0922H19.2568L22.6071 16.4941H26.6571C28.4904 16.4941 30.1275 16.0928 31.5683 15.2904C33.0575 14.4582 34.1568 13.3436 34.8661 11.9467C35.5452 10.6092 35.5976 9.55414 35.0233 8.78139C34.4824 8.00863 33.3619 7.62226 31.6619 7.62226C29.9952 7.62226 28.4553 8.12752 27.0422 9.13804C25.6291 10.1486 24.5679 11.3523 23.8586 12.7492H14.9086C16.0707 10.4606 17.7044 8.42473 19.8099 6.64145C21.9305 4.82845 24.3307 3.41669 27.0105 2.40617C29.7053 1.36592 32.4194 0.845796 35.1528 0.845796ZM63.2953 0.845796C66.0953 0.845796 68.3448 1.30648 70.0436 2.22784C71.7424 3.1492 72.7693 4.44208 73.1241 6.10647C73.4941 7.74114 73.1358 9.62845 72.0492 11.7684C71.3701 13.1058 70.4105 14.3393 69.1703 15.4687C67.9635 16.5981 66.6457 17.5195 65.2168 18.2328C63.8213 18.9461 62.4949 19.3919 61.2377 19.5702C62.4471 19.7486 63.4708 20.1944 64.3086 20.9077C65.1797 21.621 65.7043 22.5572 65.8824 23.7164C66.0938 24.8755 65.8223 26.1981 65.0677 27.6841C63.9056 29.9727 62.2203 31.9789 60.0117 33.7027C57.8181 35.3968 55.3374 36.7046 52.5696 37.6259C49.82 38.577 47.0285 39.0526 44.1952 39.0526C39.7618 39.0526 36.7325 38.0272 35.1072 35.9764C33.4818 33.9256 33.4004 31.1318 34.863 27.595H43.813C43.2251 29.081 43.244 30.2253 43.8699 31.0278C44.5291 31.8303 45.792 32.2315 47.6587 32.2315C49.5254 32.2315 51.2366 31.8154 52.7925 30.9832C54.3818 30.151 55.5159 29.0662 56.1951 27.7287C56.9496 26.2427 56.8807 25.0984 55.9881 24.2959C55.1289 23.4934 53.616 23.0922 51.4493 23.0922H47.3993L50.7497 16.4941H54.7997C56.633 16.4941 58.2701 16.0928 59.7109 15.2904C61.2001 14.4582 62.2994 13.3436 63.0087 11.9467C63.6878 10.6092 63.7402 9.55414 63.1659 8.78139C62.625 8.00863 61.5045 7.62226 59.8045 7.62226C58.1378 7.62226 56.5979 8.12752 55.1848 9.13804C53.7717 10.1486 52.7105 11.3523 52.0012 12.7492H43.0512C44.2132 10.4606 45.847 8.42473 47.9525 6.64145C50.0731 4.82845 52.4733 3.41669 55.153 2.40617C57.8479 1.36592 60.562 0.845796 63.2953 0.845796ZM66.6774 37.0642C64.0574 37.0642 62.2698 36.449 61.3146 35.2185C60.3794 33.988 60.3505 32.3118 61.2281 30.1897H66.5981C65.8854 32.0264 66.6091 32.9448 68.7691 32.9448C69.8691 32.9448 70.9021 32.6238 71.868 31.9819C72.8431 31.322 73.5886 30.4839 74.1048 29.4674C74.63 28.4331 74.721 27.6039 74.3779 26.9798C74.0639 26.3378 73.3369 26.0168 72.1969 26.0168C70.6969 26.0168 69.2979 26.5072 67.9999 27.488H63.0499L70.2351 14.7554H85.6851L83.5798 18.9015H73.0798L70.7317 22.9941C72.1796 22.3878 73.6435 22.0847 75.1235 22.0847C76.7235 22.0847 77.9741 22.3789 78.8753 22.9674C79.7965 23.5559 80.3018 24.4118 80.3914 25.5353C80.51 26.6409 80.1844 27.9516 79.4148 29.4674C78.6542 30.9654 77.5896 32.2939 76.221 33.4531C74.8815 34.5944 73.3733 35.4771 71.6963 36.1012C70.0304 36.7432 68.3574 37.0642 66.6774 37.0642ZM83.4457 37.0642C80.8257 37.0642 79.0381 36.449 78.0829 35.2185C77.1477 33.988 77.1189 32.3118 77.9964 30.1897H83.3664C82.6537 32.0264 83.3774 32.9448 85.5374 32.9448C86.6374 32.9448 87.6704 32.6238 88.6364 31.9819C89.6114 31.322 90.357 30.4839 90.8731 29.4674C91.3983 28.4331 91.4894 27.6039 91.1463 26.9798C90.8323 26.3378 90.1053 26.0168 88.9653 26.0168C87.4653 26.0168 86.0662 26.5072 84.7682 27.488H79.8182L87.0034 14.7554H102.453L100.348 18.9015H89.8482L87.5001 22.9941C88.9479 22.3878 90.4119 22.0847 91.8919 22.0847C93.4919 22.0847 94.7425 22.3789 95.6436 22.9674C96.5648 23.5559 97.0702 24.4118 97.1597 25.5353C97.2783 26.6409 96.9528 27.9516 96.1831 29.4674C95.4225 30.9654 94.3579 32.2939 92.9894 33.4531C91.6498 34.5944 90.1416 35.4771 88.4647 36.1012C86.7987 36.7432 85.1257 37.0642 83.4457 37.0642Z" fill="white"/>
</svg>
