<svg width="146" height="145" viewBox="0 0 146 145" fill="none" xmlns="http://www.w3.org/2000/svg">
<path d="M52.9434 19.951C56.6954 19.951 60.0231 20.6433 62.9264 22.028C65.8298 23.4127 68.0854 25.3557 69.6934 27.857C71.3014 30.3137 72.1054 33.15 72.1054 36.366C72.1054 38.376 71.6588 40.2297 70.7654 41.927C69.9168 43.6243 68.7778 45.009 67.3484 46.081C65.9638 47.153 64.4898 47.823 62.9264 48.091C64.6684 48.359 66.3434 49.029 67.9514 50.101C69.6041 51.173 70.9441 52.58 71.9714 54.322C73.0434 56.064 73.5794 58.0517 73.5794 60.285C73.5794 63.7243 72.6861 66.7393 70.8994 69.33C69.1128 71.876 66.6784 73.8413 63.5964 75.226C60.5591 76.6553 57.1421 77.37 53.3454 77.37C47.4048 77.37 42.6478 75.829 39.0744 72.747C35.5011 69.665 33.4911 65.4663 33.0444 60.151H45.0374C45.2608 62.3843 46.0648 64.104 47.4494 65.31C48.8788 66.516 50.8441 67.119 53.3454 67.119C55.8468 67.119 57.8568 66.4937 59.3754 65.243C60.9388 63.9923 61.7204 62.362 61.7204 60.352C61.7204 58.1187 60.8494 56.399 59.1074 55.193C57.4101 53.987 55.1098 53.384 52.2064 53.384H46.7794V43.468H52.2064C54.6631 43.468 56.5838 42.865 57.9684 41.659C59.3978 40.4083 60.1124 38.7333 60.1124 36.634C60.1124 34.624 59.4648 33.0383 58.1694 31.877C56.9188 30.7157 55.1544 30.135 52.8764 30.135C50.6431 30.135 48.9234 30.8943 47.7174 32.413C46.5114 33.9317 45.9084 35.7407 45.9084 37.84H33.9154C33.9154 34.4007 34.7194 31.341 36.3274 28.661C37.9354 25.9363 40.1911 23.8147 43.0944 22.296C45.9978 20.7327 49.2808 19.951 52.9434 19.951ZM91.6595 19.951C95.4115 19.951 98.7392 20.6433 101.643 22.028C104.546 23.4127 106.802 25.3557 108.41 27.857C110.018 30.3137 110.822 33.15 110.822 36.366C110.822 38.376 110.375 40.2297 109.482 41.927C108.633 43.6243 107.494 45.009 106.065 46.081C104.68 47.153 103.206 47.823 101.643 48.091C103.385 48.359 105.06 49.029 106.668 50.101C108.32 51.173 109.66 52.58 110.688 54.322C111.76 56.064 112.296 58.0517 112.296 60.285C112.296 63.7243 111.402 66.7393 109.616 69.33C107.829 71.876 105.395 73.8413 102.313 75.226C99.2752 76.6553 95.8582 77.37 92.0615 77.37C86.1208 77.37 81.3638 75.829 77.7905 72.747C74.2172 69.665 72.2072 65.4663 71.7605 60.151H83.7535C83.9768 62.3843 84.7808 64.104 86.1655 65.31C87.5948 66.516 89.5602 67.119 92.0615 67.119C94.5628 67.119 96.5728 66.4937 98.0915 65.243C99.6548 63.9923 100.437 62.362 100.437 60.352C100.437 58.1187 99.5655 56.399 97.8235 55.193C96.1262 53.987 93.8258 53.384 90.9225 53.384H85.4955V43.468H90.9225C93.3792 43.468 95.2998 42.865 96.6845 41.659C98.1138 40.4083 98.8285 38.7333 98.8285 36.634C98.8285 34.624 98.1808 33.0383 96.8855 31.877C95.6348 30.7157 93.8705 30.135 91.5925 30.135C89.3592 30.135 87.6395 30.8943 86.4335 32.413C85.2275 33.9317 84.6245 35.7407 84.6245 37.84H72.6315C72.6315 34.4007 73.4355 31.341 75.0435 28.661C76.6515 25.9363 78.9072 23.8147 81.8105 22.296C84.7138 20.7327 87.9968 19.951 91.6595 19.951ZM65.9535 122.303C60.1022 122.303 55.4122 120.762 51.8835 117.68C48.3995 114.598 46.4342 110.399 45.9875 105.084H57.9805C58.4718 109.685 61.1295 111.985 65.9535 111.985C68.4102 111.985 70.3532 111.181 71.7825 109.573C73.2118 107.92 73.9265 105.821 73.9265 103.275C73.9265 100.684 73.1895 98.6073 71.7155 97.044C70.2862 95.436 68.2985 94.632 65.7525 94.632C62.4025 94.632 59.8342 95.8603 58.0475 98.317H46.9925L48.6005 66.425H83.1055V76.81H59.6555L59.0525 87.061C61.5985 85.5423 64.5242 84.783 67.8295 84.783C71.4028 84.783 74.5295 85.52 77.2095 86.994C79.9342 88.468 82.0335 90.612 83.5075 93.426C85.0262 96.1953 85.7855 99.4783 85.7855 103.275C85.7855 107.027 84.9145 110.355 83.1725 113.258C81.4752 116.117 79.1078 118.328 76.0705 119.891C73.0778 121.499 69.7055 122.303 65.9535 122.303ZM104.408 122.303C98.5565 122.303 93.8665 120.762 90.3378 117.68C86.8538 114.598 84.8885 110.399 84.4418 105.084H96.4348C96.9262 109.685 99.5838 111.985 104.408 111.985C106.864 111.985 108.807 111.181 110.237 109.573C111.666 107.92 112.381 105.821 112.381 103.275C112.381 100.684 111.644 98.6073 110.17 97.044C108.74 95.436 106.753 94.632 104.207 94.632C100.857 94.632 98.2885 95.8603 96.5018 98.317H85.4468L87.0548 66.425H121.56V76.81H98.1098L97.5068 87.061C100.053 85.5423 102.978 84.783 106.284 84.783C109.857 84.783 112.984 85.52 115.664 86.994C118.388 88.468 120.488 90.612 121.962 93.426C123.48 96.1953 124.24 99.4783 124.24 103.275C124.24 107.027 123.369 110.355 121.627 113.258C119.929 116.117 117.562 118.328 114.525 119.891C111.532 121.499 108.16 122.303 104.408 122.303Z" fill="white"/>
<rect x="1.5" y="1.5" width="143" height="142" rx="28.5" stroke="white" stroke-width="3"/>
</svg>
